<mxfile host="65bd71144e">
    <diagram id="YrGWsNYRrR_t1dRuzBlK" name="Page-1">
        <mxGraphModel dx="1129" dy="779" grid="0" gridSize="10" guides="1" tooltips="1" connect="1" arrows="1" fold="1" page="1" pageScale="1" pageWidth="850" pageHeight="1400" background="#000000" math="0" shadow="0">
            <root>
                <mxCell id="0"/>
                <mxCell id="1" parent="0"/>
                <mxCell id="42" value="Usuário" style="shape=umlLifeline;perimeter=lifelinePerimeter;whiteSpace=wrap;html=1;container=0;dropTarget=0;collapsible=0;recursiveResize=0;outlineConnect=0;portConstraint=eastwest;newEdgeStyle={&quot;edgeStyle&quot;:&quot;elbowEdgeStyle&quot;,&quot;elbow&quot;:&quot;vertical&quot;,&quot;curved&quot;:0,&quot;rounded&quot;:0};" parent="1" vertex="1">
                    <mxGeometry x="40" y="40" width="100" height="1232" as="geometry"/>
                </mxCell>
                <mxCell id="43" value="" style="html=1;points=[];perimeter=orthogonalPerimeter;outlineConnect=0;targetShapes=umlLifeline;portConstraint=eastwest;newEdgeStyle={&quot;edgeStyle&quot;:&quot;elbowEdgeStyle&quot;,&quot;elbow&quot;:&quot;vertical&quot;,&quot;curved&quot;:0,&quot;rounded&quot;:0};" parent="42" vertex="1">
                    <mxGeometry x="45" y="70" width="10" height="1150" as="geometry"/>
                </mxCell>
                <mxCell id="46" value="Acessa a home page do site" style="html=1;verticalAlign=bottom;endArrow=block;edgeStyle=elbowEdgeStyle;elbow=vertical;curved=0;rounded=0;" parent="1" source="43" target="48" edge="1">
                    <mxGeometry relative="1" as="geometry">
                        <mxPoint x="195" y="130" as="sourcePoint"/>
                        <Array as="points">
                            <mxPoint x="180" y="120"/>
                        </Array>
                        <mxPoint x="265" y="120" as="targetPoint"/>
                    </mxGeometry>
                </mxCell>
                <mxCell id="47" value="Ecommerce (Aplicação)" style="shape=umlLifeline;perimeter=lifelinePerimeter;whiteSpace=wrap;html=1;container=0;dropTarget=0;collapsible=0;recursiveResize=0;outlineConnect=0;portConstraint=eastwest;newEdgeStyle={&quot;edgeStyle&quot;:&quot;elbowEdgeStyle&quot;,&quot;elbow&quot;:&quot;vertical&quot;,&quot;curved&quot;:0,&quot;rounded&quot;:0};" parent="1" vertex="1">
                    <mxGeometry x="300" y="40" width="100" height="1232" as="geometry"/>
                </mxCell>
                <mxCell id="48" value="" style="html=1;points=[];perimeter=orthogonalPerimeter;outlineConnect=0;targetShapes=umlLifeline;portConstraint=eastwest;newEdgeStyle={&quot;edgeStyle&quot;:&quot;elbowEdgeStyle&quot;,&quot;elbow&quot;:&quot;vertical&quot;,&quot;curved&quot;:0,&quot;rounded&quot;:0};" parent="47" vertex="1">
                    <mxGeometry x="45" y="70" width="10" height="80" as="geometry"/>
                </mxCell>
                <mxCell id="50" value="Devolve a home page com os produtos" style="html=1;verticalAlign=bottom;endArrow=open;dashed=1;endSize=8;edgeStyle=elbowEdgeStyle;elbow=vertical;curved=0;rounded=0;" parent="1" source="48" target="42" edge="1">
                    <mxGeometry relative="1" as="geometry">
                        <mxPoint x="150" y="162.16999999999996" as="targetPoint"/>
                        <Array as="points">
                            <mxPoint x="290" y="172"/>
                        </Array>
                        <mxPoint x="320" y="162.16999999999996" as="sourcePoint"/>
                        <mxPoint as="offset"/>
                    </mxGeometry>
                </mxCell>
                <mxCell id="51" value=" Banco de dados" style="shape=umlLifeline;perimeter=lifelinePerimeter;whiteSpace=wrap;html=1;container=0;dropTarget=0;collapsible=0;recursiveResize=0;outlineConnect=0;portConstraint=eastwest;newEdgeStyle={&quot;edgeStyle&quot;:&quot;elbowEdgeStyle&quot;,&quot;elbow&quot;:&quot;vertical&quot;,&quot;curved&quot;:0,&quot;rounded&quot;:0};" parent="1" vertex="1">
                    <mxGeometry x="560" y="40" width="120" height="1232" as="geometry"/>
                </mxCell>
                <mxCell id="52" value="" style="html=1;points=[];perimeter=orthogonalPerimeter;outlineConnect=0;targetShapes=umlLifeline;portConstraint=eastwest;newEdgeStyle={&quot;edgeStyle&quot;:&quot;elbowEdgeStyle&quot;,&quot;elbow&quot;:&quot;vertical&quot;,&quot;curved&quot;:0,&quot;rounded&quot;:0};" parent="51" vertex="1">
                    <mxGeometry x="55" y="90" width="10" height="40" as="geometry"/>
                </mxCell>
                <mxCell id="64" value="Consulta os produtos disponíveis" style="html=1;verticalAlign=bottom;endArrow=block;edgeStyle=elbowEdgeStyle;elbow=vertical;curved=0;rounded=0;" parent="1" source="48" target="51" edge="1">
                    <mxGeometry relative="1" as="geometry">
                        <mxPoint x="380" y="132" as="sourcePoint"/>
                        <Array as="points">
                            <mxPoint x="465" y="132"/>
                        </Array>
                        <mxPoint x="550" y="132" as="targetPoint"/>
                    </mxGeometry>
                </mxCell>
                <mxCell id="71" value="Retorna os produtos disponíveis" style="html=1;verticalAlign=bottom;endArrow=open;dashed=1;endSize=8;edgeStyle=elbowEdgeStyle;elbow=vertical;curved=0;rounded=0;" parent="1" source="52" target="47" edge="1">
                    <mxGeometry x="-0.0586" relative="1" as="geometry">
                        <mxPoint x="400" y="145" as="targetPoint"/>
                        <Array as="points">
                            <mxPoint x="340" y="142"/>
                            <mxPoint x="500.06999999999994" y="152"/>
                            <mxPoint x="510.06999999999994" y="152"/>
                            <mxPoint x="510.06999999999994" y="162"/>
                        </Array>
                        <mxPoint x="635" y="162.28999999999974" as="sourcePoint"/>
                        <mxPoint as="offset"/>
                    </mxGeometry>
                </mxCell>
                <mxCell id="83" value="Consulta detalhes do produto" style="html=1;verticalAlign=bottom;endArrow=block;edgeStyle=elbowEdgeStyle;elbow=vertical;curved=0;rounded=0;" parent="1" edge="1">
                    <mxGeometry relative="1" as="geometry">
                        <mxPoint x="95" y="212" as="sourcePoint"/>
                        <Array as="points">
                            <mxPoint x="180" y="212"/>
                        </Array>
                        <mxPoint x="345" y="212" as="targetPoint"/>
                    </mxGeometry>
                </mxCell>
                <mxCell id="84" value="Consulta os detalhes do produto escolhido" style="html=1;verticalAlign=bottom;endArrow=block;edgeStyle=elbowEdgeStyle;elbow=vertical;curved=0;rounded=0;" parent="1" target="86" edge="1">
                    <mxGeometry relative="1" as="geometry">
                        <mxPoint x="350.5" y="232" as="sourcePoint"/>
                        <Array as="points">
                            <mxPoint x="460.5" y="232"/>
                        </Array>
                        <mxPoint x="635" y="232" as="targetPoint"/>
                    </mxGeometry>
                </mxCell>
                <mxCell id="85" value="" style="html=1;points=[];perimeter=orthogonalPerimeter;outlineConnect=0;targetShapes=umlLifeline;portConstraint=eastwest;newEdgeStyle={&quot;edgeStyle&quot;:&quot;elbowEdgeStyle&quot;,&quot;elbow&quot;:&quot;vertical&quot;,&quot;curved&quot;:0,&quot;rounded&quot;:0};" parent="1" vertex="1">
                    <mxGeometry x="345" y="202" width="10" height="80" as="geometry"/>
                </mxCell>
                <mxCell id="86" value="" style="html=1;points=[];perimeter=orthogonalPerimeter;outlineConnect=0;targetShapes=umlLifeline;portConstraint=eastwest;newEdgeStyle={&quot;edgeStyle&quot;:&quot;elbowEdgeStyle&quot;,&quot;elbow&quot;:&quot;vertical&quot;,&quot;curved&quot;:0,&quot;rounded&quot;:0};" parent="1" vertex="1">
                    <mxGeometry x="615" y="222" width="10" height="40" as="geometry"/>
                </mxCell>
                <mxCell id="87" value="Retorna os detalhes dos produtos" style="html=1;verticalAlign=bottom;endArrow=open;dashed=1;endSize=8;edgeStyle=elbowEdgeStyle;elbow=vertical;curved=0;rounded=0;" parent="1" source="86" target="85" edge="1">
                    <mxGeometry x="-0.0586" relative="1" as="geometry">
                        <mxPoint x="355" y="260" as="targetPoint"/>
                        <Array as="points">
                            <mxPoint x="500" y="262"/>
                            <mxPoint x="620" y="252"/>
                            <mxPoint x="505.56999999999994" y="262"/>
                            <mxPoint x="515.5699999999999" y="262"/>
                            <mxPoint x="515.5699999999999" y="272"/>
                        </Array>
                        <mxPoint x="640.5" y="260" as="sourcePoint"/>
                        <mxPoint as="offset"/>
                    </mxGeometry>
                </mxCell>
                <mxCell id="88" value="Devolve os detalhes dos produtos" style="html=1;verticalAlign=bottom;endArrow=open;dashed=1;endSize=8;edgeStyle=elbowEdgeStyle;elbow=vertical;curved=0;rounded=0;" parent="1" edge="1">
                    <mxGeometry x="-0.0586" relative="1" as="geometry">
                        <mxPoint x="90" y="272" as="targetPoint"/>
                        <Array as="points">
                            <mxPoint x="330" y="272"/>
                            <mxPoint x="215.56999999999994" y="282"/>
                            <mxPoint x="225.56999999999994" y="282"/>
                            <mxPoint x="225.56999999999994" y="292"/>
                        </Array>
                        <mxPoint x="344.9999999999998" y="271.9999999999999" as="sourcePoint"/>
                        <mxPoint as="offset"/>
                    </mxGeometry>
                </mxCell>
                <mxCell id="89" value="" style="html=1;points=[];perimeter=orthogonalPerimeter;outlineConnect=0;targetShapes=umlLifeline;portConstraint=eastwest;newEdgeStyle={&quot;edgeStyle&quot;:&quot;elbowEdgeStyle&quot;,&quot;elbow&quot;:&quot;vertical&quot;,&quot;curved&quot;:0,&quot;rounded&quot;:0};" parent="1" vertex="1">
                    <mxGeometry x="345" y="292" width="10" height="80" as="geometry"/>
                </mxCell>
                <mxCell id="90" value="Adiciona produto no carrinho" style="html=1;verticalAlign=bottom;endArrow=block;edgeStyle=elbowEdgeStyle;elbow=vertical;curved=0;rounded=0;" parent="1" edge="1">
                    <mxGeometry relative="1" as="geometry">
                        <mxPoint x="95" y="301.9999999999999" as="sourcePoint"/>
                        <Array as="points">
                            <mxPoint x="180" y="302"/>
                        </Array>
                        <mxPoint x="345" y="301.9999999999999" as="targetPoint"/>
                    </mxGeometry>
                </mxCell>
                <mxCell id="91" value="Salva carrinho na sessão" style="html=1;verticalAlign=bottom;endArrow=open;dashed=1;endSize=8;edgeStyle=orthogonalEdgeStyle;elbow=vertical;rounded=0;" parent="1" source="89" target="47" edge="1">
                    <mxGeometry x="-0.0586" relative="1" as="geometry">
                        <mxPoint x="510" y="342" as="targetPoint"/>
                        <Array as="points">
                            <mxPoint x="500" y="312"/>
                            <mxPoint x="500" y="342"/>
                        </Array>
                        <mxPoint x="614.9999999999998" y="331.9999999999999" as="sourcePoint"/>
                        <mxPoint as="offset"/>
                    </mxGeometry>
                </mxCell>
                <mxCell id="95" value="Devolve a pagina de carrinho" style="html=1;verticalAlign=bottom;endArrow=open;dashed=1;endSize=8;edgeStyle=elbowEdgeStyle;elbow=vertical;curved=0;rounded=0;" parent="1" target="43" edge="1">
                    <mxGeometry x="-0.0586" relative="1" as="geometry">
                        <mxPoint x="140" y="362" as="targetPoint"/>
                        <Array as="points">
                            <mxPoint x="230" y="362"/>
                            <mxPoint x="350" y="352"/>
                            <mxPoint x="235.56999999999994" y="362"/>
                            <mxPoint x="245.56999999999994" y="362"/>
                            <mxPoint x="245.56999999999994" y="372"/>
                        </Array>
                        <mxPoint x="344.9999999999998" y="361.9999999999999" as="sourcePoint"/>
                        <mxPoint as="offset"/>
                    </mxGeometry>
                </mxCell>
                <mxCell id="96" value="" style="html=1;points=[];perimeter=orthogonalPerimeter;outlineConnect=0;targetShapes=umlLifeline;portConstraint=eastwest;newEdgeStyle={&quot;edgeStyle&quot;:&quot;elbowEdgeStyle&quot;,&quot;elbow&quot;:&quot;vertical&quot;,&quot;curved&quot;:0,&quot;rounded&quot;:0};" parent="1" vertex="1">
                    <mxGeometry x="345" y="392" width="10" height="60" as="geometry"/>
                </mxCell>
                <mxCell id="97" value="Consulta valor do frete" style="html=1;verticalAlign=bottom;endArrow=block;edgeStyle=elbowEdgeStyle;elbow=vertical;curved=0;rounded=0;" parent="1" edge="1">
                    <mxGeometry relative="1" as="geometry">
                        <mxPoint x="95" y="401.9999999999999" as="sourcePoint"/>
                        <Array as="points">
                            <mxPoint x="180" y="402"/>
                        </Array>
                        <mxPoint x="345" y="401.9999999999999" as="targetPoint"/>
                    </mxGeometry>
                </mxCell>
                <mxCell id="98" value="Devolve o valor o frete escolhido" style="html=1;verticalAlign=bottom;endArrow=open;dashed=1;endSize=8;edgeStyle=elbowEdgeStyle;elbow=vertical;curved=0;rounded=0;" parent="1" edge="1">
                    <mxGeometry x="-0.0586" relative="1" as="geometry">
                        <mxPoint x="95" y="441.9999999999999" as="targetPoint"/>
                        <Array as="points">
                            <mxPoint x="230" y="442"/>
                            <mxPoint x="350" y="432"/>
                            <mxPoint x="235.56999999999994" y="442"/>
                            <mxPoint x="245.56999999999994" y="442"/>
                            <mxPoint x="245.56999999999994" y="452"/>
                        </Array>
                        <mxPoint x="344.9999999999998" y="441.9999999999999" as="sourcePoint"/>
                        <mxPoint as="offset"/>
                    </mxGeometry>
                </mxCell>
                <mxCell id="99" value="" style="html=1;points=[];perimeter=orthogonalPerimeter;outlineConnect=0;targetShapes=umlLifeline;portConstraint=eastwest;newEdgeStyle={&quot;edgeStyle&quot;:&quot;elbowEdgeStyle&quot;,&quot;elbow&quot;:&quot;vertical&quot;,&quot;curved&quot;:0,&quot;rounded&quot;:0};" parent="1" vertex="1">
                    <mxGeometry x="345" y="472" width="10" height="60" as="geometry"/>
                </mxCell>
                <mxCell id="100" value="Edita quantidade de itens no carrinho" style="html=1;verticalAlign=bottom;endArrow=block;edgeStyle=elbowEdgeStyle;elbow=vertical;curved=0;rounded=0;" parent="1" edge="1">
                    <mxGeometry relative="1" as="geometry">
                        <mxPoint x="95" y="480.65999999999985" as="sourcePoint"/>
                        <Array as="points">
                            <mxPoint x="180" y="480.65999999999997"/>
                        </Array>
                        <mxPoint x="345" y="480.65999999999985" as="targetPoint"/>
                    </mxGeometry>
                </mxCell>
                <mxCell id="101" value="Modifica carrinho salvo na sessão" style="html=1;verticalAlign=bottom;endArrow=open;dashed=1;endSize=8;edgeStyle=orthogonalEdgeStyle;elbow=vertical;rounded=0;" parent="1" edge="1">
                    <mxGeometry x="-0.0586" relative="1" as="geometry">
                        <mxPoint x="355.00034482758605" y="516.9955172413793" as="targetPoint"/>
                        <Array as="points">
                            <mxPoint x="505" y="487"/>
                            <mxPoint x="505" y="517"/>
                        </Array>
                        <mxPoint x="355" y="487" as="sourcePoint"/>
                        <mxPoint as="offset"/>
                    </mxGeometry>
                </mxCell>
                <mxCell id="102" value="Devolve a pagina de carrinho" style="html=1;verticalAlign=bottom;endArrow=open;dashed=1;endSize=8;edgeStyle=elbowEdgeStyle;elbow=vertical;curved=0;rounded=0;" parent="1" edge="1">
                    <mxGeometry x="-0.0586" relative="1" as="geometry">
                        <mxPoint x="95" y="532" as="targetPoint"/>
                        <Array as="points">
                            <mxPoint x="230" y="532"/>
                            <mxPoint x="350" y="522"/>
                            <mxPoint x="235.56999999999994" y="532"/>
                            <mxPoint x="245.56999999999994" y="532"/>
                            <mxPoint x="245.56999999999994" y="542"/>
                        </Array>
                        <mxPoint x="344.9999999999998" y="532" as="sourcePoint"/>
                        <mxPoint as="offset"/>
                    </mxGeometry>
                </mxCell>
                <mxCell id="103" value="" style="html=1;points=[];perimeter=orthogonalPerimeter;outlineConnect=0;targetShapes=umlLifeline;portConstraint=eastwest;newEdgeStyle={&quot;edgeStyle&quot;:&quot;elbowEdgeStyle&quot;,&quot;elbow&quot;:&quot;vertical&quot;,&quot;curved&quot;:0,&quot;rounded&quot;:0};" parent="1" vertex="1">
                    <mxGeometry x="345" y="552" width="10" height="60" as="geometry"/>
                </mxCell>
                <mxCell id="104" value="Remove item do carrinho" style="html=1;verticalAlign=bottom;endArrow=block;edgeStyle=elbowEdgeStyle;elbow=vertical;curved=0;rounded=0;" parent="1" edge="1">
                    <mxGeometry relative="1" as="geometry">
                        <mxPoint x="95" y="561.9999999999999" as="sourcePoint"/>
                        <Array as="points">
                            <mxPoint x="180" y="562"/>
                        </Array>
                        <mxPoint x="345" y="561.9999999999999" as="targetPoint"/>
                    </mxGeometry>
                </mxCell>
                <mxCell id="105" value="Modifica carrinho salvo na sessão" style="html=1;verticalAlign=bottom;endArrow=open;dashed=1;endSize=8;edgeStyle=orthogonalEdgeStyle;elbow=vertical;rounded=0;" parent="1" edge="1">
                    <mxGeometry x="-0.0586" relative="1" as="geometry">
                        <mxPoint x="355.0003448275861" y="596.9955172413793" as="targetPoint"/>
                        <Array as="points">
                            <mxPoint x="505" y="567"/>
                            <mxPoint x="505" y="597"/>
                        </Array>
                        <mxPoint x="355" y="567" as="sourcePoint"/>
                        <mxPoint as="offset"/>
                    </mxGeometry>
                </mxCell>
                <mxCell id="106" value="Devolve a pagina de carrinho" style="html=1;verticalAlign=bottom;endArrow=open;dashed=1;endSize=8;edgeStyle=elbowEdgeStyle;elbow=vertical;curved=0;rounded=0;" parent="1" edge="1">
                    <mxGeometry x="-0.0586" relative="1" as="geometry">
                        <mxPoint x="95" y="612" as="targetPoint"/>
                        <Array as="points">
                            <mxPoint x="230" y="612"/>
                            <mxPoint x="350" y="602"/>
                            <mxPoint x="235.56999999999994" y="612"/>
                            <mxPoint x="245.56999999999994" y="612"/>
                            <mxPoint x="245.56999999999994" y="622"/>
                        </Array>
                        <mxPoint x="344.9999999999998" y="612" as="sourcePoint"/>
                        <mxPoint as="offset"/>
                    </mxGeometry>
                </mxCell>
                <mxCell id="107" value="" style="html=1;points=[];perimeter=orthogonalPerimeter;outlineConnect=0;targetShapes=umlLifeline;portConstraint=eastwest;newEdgeStyle={&quot;edgeStyle&quot;:&quot;elbowEdgeStyle&quot;,&quot;elbow&quot;:&quot;vertical&quot;,&quot;curved&quot;:0,&quot;rounded&quot;:0};" parent="1" vertex="1">
                    <mxGeometry x="345" y="642" width="10" height="60" as="geometry"/>
                </mxCell>
                <mxCell id="108" value="Clica em &quot;Concluir compra'" style="html=1;verticalAlign=bottom;endArrow=block;edgeStyle=elbowEdgeStyle;elbow=vertical;curved=0;rounded=0;" parent="1" edge="1">
                    <mxGeometry relative="1" as="geometry">
                        <mxPoint x="95" y="652" as="sourcePoint"/>
                        <Array as="points">
                            <mxPoint x="180" y="652"/>
                        </Array>
                        <mxPoint x="345" y="652" as="targetPoint"/>
                    </mxGeometry>
                </mxCell>
                <mxCell id="109" value="Devolve a pagina de login" style="html=1;verticalAlign=bottom;endArrow=open;dashed=1;endSize=8;edgeStyle=elbowEdgeStyle;elbow=vertical;curved=0;rounded=0;" parent="1" edge="1">
                    <mxGeometry x="-0.0586" relative="1" as="geometry">
                        <mxPoint x="95" y="682" as="targetPoint"/>
                        <Array as="points">
                            <mxPoint x="230" y="682"/>
                            <mxPoint x="350" y="672"/>
                            <mxPoint x="235.56999999999994" y="682"/>
                            <mxPoint x="245.56999999999994" y="682"/>
                            <mxPoint x="245.56999999999994" y="692"/>
                        </Array>
                        <mxPoint x="344.9999999999998" y="682" as="sourcePoint"/>
                        <mxPoint as="offset"/>
                    </mxGeometry>
                </mxCell>
                <mxCell id="110" value="Clica em &quot;Cadastre-se'" style="html=1;verticalAlign=bottom;endArrow=block;edgeStyle=elbowEdgeStyle;elbow=vertical;curved=0;rounded=0;" parent="1" edge="1">
                    <mxGeometry relative="1" as="geometry">
                        <mxPoint x="95" y="722" as="sourcePoint"/>
                        <Array as="points">
                            <mxPoint x="180" y="722"/>
                        </Array>
                        <mxPoint x="345" y="722" as="targetPoint"/>
                    </mxGeometry>
                </mxCell>
                <mxCell id="111" value="" style="html=1;points=[];perimeter=orthogonalPerimeter;outlineConnect=0;targetShapes=umlLifeline;portConstraint=eastwest;newEdgeStyle={&quot;edgeStyle&quot;:&quot;elbowEdgeStyle&quot;,&quot;elbow&quot;:&quot;vertical&quot;,&quot;curved&quot;:0,&quot;rounded&quot;:0};" parent="1" vertex="1">
                    <mxGeometry x="345" y="722" width="10" height="40" as="geometry"/>
                </mxCell>
                <mxCell id="112" value="Devolve a pagina de cadastro" style="html=1;verticalAlign=bottom;endArrow=open;dashed=1;endSize=8;edgeStyle=elbowEdgeStyle;elbow=vertical;curved=0;rounded=0;" parent="1" edge="1">
                    <mxGeometry x="-0.0586" relative="1" as="geometry">
                        <mxPoint x="95" y="762" as="targetPoint"/>
                        <Array as="points">
                            <mxPoint x="230" y="762"/>
                            <mxPoint x="350" y="752"/>
                            <mxPoint x="235.56999999999994" y="762"/>
                            <mxPoint x="245.56999999999994" y="762"/>
                            <mxPoint x="245.56999999999994" y="772"/>
                        </Array>
                        <mxPoint x="344.9999999999998" y="762" as="sourcePoint"/>
                        <mxPoint as="offset"/>
                    </mxGeometry>
                </mxCell>
                <mxCell id="113" value="Insere as informações e clica em cadastra-se" style="html=1;verticalAlign=bottom;endArrow=block;edgeStyle=elbowEdgeStyle;elbow=vertical;curved=0;rounded=0;" parent="1" edge="1">
                    <mxGeometry relative="1" as="geometry">
                        <mxPoint x="95" y="792" as="sourcePoint"/>
                        <Array as="points">
                            <mxPoint x="180" y="792"/>
                        </Array>
                        <mxPoint x="345" y="792" as="targetPoint"/>
                    </mxGeometry>
                </mxCell>
                <mxCell id="114" value="" style="html=1;points=[];perimeter=orthogonalPerimeter;outlineConnect=0;targetShapes=umlLifeline;portConstraint=eastwest;newEdgeStyle={&quot;edgeStyle&quot;:&quot;elbowEdgeStyle&quot;,&quot;elbow&quot;:&quot;vertical&quot;,&quot;curved&quot;:0,&quot;rounded&quot;:0};" parent="1" vertex="1">
                    <mxGeometry x="345" y="782" width="10" height="120" as="geometry"/>
                </mxCell>
                <mxCell id="115" value="" style="html=1;points=[];perimeter=orthogonalPerimeter;outlineConnect=0;targetShapes=umlLifeline;portConstraint=eastwest;newEdgeStyle={&quot;edgeStyle&quot;:&quot;elbowEdgeStyle&quot;,&quot;elbow&quot;:&quot;vertical&quot;,&quot;curved&quot;:0,&quot;rounded&quot;:0};" parent="1" vertex="1">
                    <mxGeometry x="615" y="782" width="10" height="50" as="geometry"/>
                </mxCell>
                <mxCell id="116" value="Insere as informações" style="html=1;verticalAlign=bottom;endArrow=block;edgeStyle=elbowEdgeStyle;elbow=vertical;curved=0;rounded=0;" parent="1" source="114" edge="1">
                    <mxGeometry relative="1" as="geometry">
                        <mxPoint x="365" y="801.58" as="sourcePoint"/>
                        <Array as="points">
                            <mxPoint x="450" y="801.58"/>
                        </Array>
                        <mxPoint x="615" y="801.58" as="targetPoint"/>
                    </mxGeometry>
                </mxCell>
                <mxCell id="117" value="Retorna as informações do usuario cadastrado" style="html=1;verticalAlign=bottom;endArrow=open;dashed=1;endSize=8;edgeStyle=elbowEdgeStyle;elbow=vertical;curved=0;rounded=0;" parent="1" edge="1">
                    <mxGeometry x="-0.0586" relative="1" as="geometry">
                        <mxPoint x="355" y="822" as="targetPoint"/>
                        <Array as="points">
                            <mxPoint x="500" y="822"/>
                            <mxPoint x="620" y="812"/>
                            <mxPoint x="505.56999999999994" y="822"/>
                            <mxPoint x="515.5699999999999" y="822"/>
                            <mxPoint x="515.5699999999999" y="832"/>
                        </Array>
                        <mxPoint x="615" y="822" as="sourcePoint"/>
                        <mxPoint as="offset"/>
                    </mxGeometry>
                </mxCell>
                <mxCell id="118" value="&lt;font style=&quot;font-size: 9px;&quot;&gt;Loga o usuario e salva as informações de login na sessão&lt;/font&gt;" style="html=1;verticalAlign=bottom;endArrow=open;dashed=1;endSize=8;edgeStyle=orthogonalEdgeStyle;elbow=vertical;rounded=0;" parent="1" edge="1">
                    <mxGeometry x="-0.2424" y="-10" relative="1" as="geometry">
                        <mxPoint x="355.0003448275861" y="871.9955172413793" as="targetPoint"/>
                        <Array as="points">
                            <mxPoint x="505" y="842"/>
                            <mxPoint x="505" y="872"/>
                        </Array>
                        <mxPoint x="355" y="842" as="sourcePoint"/>
                        <mxPoint as="offset"/>
                    </mxGeometry>
                </mxCell>
                <mxCell id="119" value="Devolve a pagina de checkout" style="html=1;verticalAlign=bottom;endArrow=open;dashed=1;endSize=8;edgeStyle=elbowEdgeStyle;elbow=vertical;curved=0;rounded=0;" parent="1" edge="1">
                    <mxGeometry x="-0.0586" relative="1" as="geometry">
                        <mxPoint x="95" y="892" as="targetPoint"/>
                        <Array as="points">
                            <mxPoint x="230" y="892"/>
                            <mxPoint x="350" y="882"/>
                            <mxPoint x="235.56999999999994" y="892"/>
                            <mxPoint x="245.56999999999994" y="892"/>
                            <mxPoint x="245.56999999999994" y="902"/>
                        </Array>
                        <mxPoint x="344.9999999999998" y="892" as="sourcePoint"/>
                        <mxPoint as="offset"/>
                    </mxGeometry>
                </mxCell>
                <mxCell id="121" value="" style="html=1;points=[];perimeter=orthogonalPerimeter;outlineConnect=0;targetShapes=umlLifeline;portConstraint=eastwest;newEdgeStyle={&quot;edgeStyle&quot;:&quot;elbowEdgeStyle&quot;,&quot;elbow&quot;:&quot;vertical&quot;,&quot;curved&quot;:0,&quot;rounded&quot;:0};" parent="1" vertex="1">
                    <mxGeometry x="345" y="912" width="10" height="90" as="geometry"/>
                </mxCell>
                <mxCell id="122" value="Escolhe o endereço de entrega" style="html=1;verticalAlign=bottom;endArrow=block;edgeStyle=elbowEdgeStyle;elbow=vertical;curved=0;rounded=0;" parent="1" edge="1">
                    <mxGeometry relative="1" as="geometry">
                        <mxPoint x="95" y="932" as="sourcePoint"/>
                        <Array as="points">
                            <mxPoint x="180" y="932"/>
                        </Array>
                        <mxPoint x="345" y="932" as="targetPoint"/>
                    </mxGeometry>
                </mxCell>
                <mxCell id="123" value="Salva endereço de entrega escolhido" style="html=1;verticalAlign=bottom;endArrow=open;dashed=1;endSize=8;edgeStyle=orthogonalEdgeStyle;elbow=vertical;rounded=0;" parent="1" edge="1">
                    <mxGeometry x="-0.0586" relative="1" as="geometry">
                        <mxPoint x="355.0003448275861" y="966.9955172413793" as="targetPoint"/>
                        <Array as="points">
                            <mxPoint x="505" y="937"/>
                            <mxPoint x="505" y="967"/>
                        </Array>
                        <mxPoint x="355" y="937" as="sourcePoint"/>
                        <mxPoint as="offset"/>
                    </mxGeometry>
                </mxCell>
                <mxCell id="125" value="Devolve a pagina de checkout" style="html=1;verticalAlign=bottom;endArrow=open;dashed=1;endSize=8;edgeStyle=elbowEdgeStyle;elbow=vertical;curved=0;rounded=0;" parent="1" edge="1">
                    <mxGeometry x="-0.0586" relative="1" as="geometry">
                        <mxPoint x="95" y="992" as="targetPoint"/>
                        <Array as="points">
                            <mxPoint x="230" y="992"/>
                            <mxPoint x="350" y="982"/>
                            <mxPoint x="235.56999999999994" y="992"/>
                            <mxPoint x="245.56999999999994" y="992"/>
                            <mxPoint x="245.56999999999994" y="1002"/>
                        </Array>
                        <mxPoint x="344.9999999999998" y="992" as="sourcePoint"/>
                        <mxPoint as="offset"/>
                    </mxGeometry>
                </mxCell>
                <mxCell id="126" value="" style="html=1;points=[];perimeter=orthogonalPerimeter;outlineConnect=0;targetShapes=umlLifeline;portConstraint=eastwest;newEdgeStyle={&quot;edgeStyle&quot;:&quot;elbowEdgeStyle&quot;,&quot;elbow&quot;:&quot;vertical&quot;,&quot;curved&quot;:0,&quot;rounded&quot;:0};" parent="1" vertex="1">
                    <mxGeometry x="345" y="1012" width="10" height="90" as="geometry"/>
                </mxCell>
                <mxCell id="127" value="&lt;font style=&quot;font-size: 8px;&quot;&gt;Escolhe a forma de pagamento e insere as informações da mesma&lt;/font&gt;" style="html=1;verticalAlign=bottom;endArrow=block;edgeStyle=elbowEdgeStyle;elbow=vertical;curved=0;rounded=0;" parent="1" edge="1">
                    <mxGeometry relative="1" as="geometry">
                        <mxPoint x="95" y="1031.17" as="sourcePoint"/>
                        <Array as="points">
                            <mxPoint x="180" y="1031.17"/>
                        </Array>
                        <mxPoint x="345" y="1031.17" as="targetPoint"/>
                    </mxGeometry>
                </mxCell>
                <mxCell id="128" value="Salva forma de pagamento escolhida" style="html=1;verticalAlign=bottom;endArrow=open;dashed=1;endSize=8;edgeStyle=orthogonalEdgeStyle;elbow=vertical;rounded=0;" parent="1" edge="1">
                    <mxGeometry x="-0.0586" relative="1" as="geometry">
                        <mxPoint x="355.0003448275861" y="1071.9955172413793" as="targetPoint"/>
                        <Array as="points">
                            <mxPoint x="505" y="1042"/>
                            <mxPoint x="505" y="1072"/>
                        </Array>
                        <mxPoint x="355" y="1042" as="sourcePoint"/>
                        <mxPoint as="offset"/>
                    </mxGeometry>
                </mxCell>
                <mxCell id="129" value="Devolve a pagina de checkout" style="html=1;verticalAlign=bottom;endArrow=open;dashed=1;endSize=8;edgeStyle=elbowEdgeStyle;elbow=vertical;curved=0;rounded=0;" parent="1" edge="1">
                    <mxGeometry x="-0.0586" relative="1" as="geometry">
                        <mxPoint x="90" y="1082" as="targetPoint"/>
                        <Array as="points">
                            <mxPoint x="225" y="1082"/>
                            <mxPoint x="345" y="1072"/>
                            <mxPoint x="230.56999999999994" y="1082"/>
                            <mxPoint x="240.56999999999994" y="1082"/>
                            <mxPoint x="240.56999999999994" y="1092"/>
                        </Array>
                        <mxPoint x="339.9999999999998" y="1082" as="sourcePoint"/>
                        <mxPoint as="offset"/>
                    </mxGeometry>
                </mxCell>
                <mxCell id="130" value="" style="html=1;points=[];perimeter=orthogonalPerimeter;outlineConnect=0;targetShapes=umlLifeline;portConstraint=eastwest;newEdgeStyle={&quot;edgeStyle&quot;:&quot;elbowEdgeStyle&quot;,&quot;elbow&quot;:&quot;vertical&quot;,&quot;curved&quot;:0,&quot;rounded&quot;:0};" parent="1" vertex="1">
                    <mxGeometry x="345" y="1122" width="10" height="50" as="geometry"/>
                </mxCell>
                <mxCell id="131" value="Clica em &quot;Ir para resumo&quot;&amp;nbsp;" style="html=1;verticalAlign=bottom;endArrow=block;edgeStyle=elbowEdgeStyle;elbow=vertical;curved=0;rounded=0;" parent="1" edge="1">
                    <mxGeometry relative="1" as="geometry">
                        <mxPoint x="95" y="1142" as="sourcePoint"/>
                        <Array as="points">
                            <mxPoint x="180" y="1142"/>
                        </Array>
                        <mxPoint x="345" y="1142" as="targetPoint"/>
                    </mxGeometry>
                </mxCell>
                <mxCell id="132" value="Devolve a pagina de resumo de pedido" style="html=1;verticalAlign=bottom;endArrow=open;dashed=1;endSize=8;edgeStyle=elbowEdgeStyle;elbow=vertical;curved=0;rounded=0;" parent="1" edge="1">
                    <mxGeometry x="-0.0586" relative="1" as="geometry">
                        <mxPoint x="95" y="1166.5799999999997" as="targetPoint"/>
                        <Array as="points">
                            <mxPoint x="230" y="1166.58"/>
                            <mxPoint x="350" y="1156.58"/>
                            <mxPoint x="235.56999999999994" y="1166.58"/>
                            <mxPoint x="245.56999999999994" y="1166.58"/>
                            <mxPoint x="245.56999999999994" y="1176.58"/>
                        </Array>
                        <mxPoint x="344.9999999999998" y="1166.5799999999997" as="sourcePoint"/>
                        <mxPoint as="offset"/>
                    </mxGeometry>
                </mxCell>
                <mxCell id="133" value="" style="html=1;points=[];perimeter=orthogonalPerimeter;outlineConnect=0;targetShapes=umlLifeline;portConstraint=eastwest;newEdgeStyle={&quot;edgeStyle&quot;:&quot;elbowEdgeStyle&quot;,&quot;elbow&quot;:&quot;vertical&quot;,&quot;curved&quot;:0,&quot;rounded&quot;:0};" parent="1" vertex="1">
                    <mxGeometry x="345" y="1192" width="10" height="60" as="geometry"/>
                </mxCell>
                <mxCell id="134" value="Confere o pedido e conclui a compra" style="html=1;verticalAlign=bottom;endArrow=block;edgeStyle=elbowEdgeStyle;elbow=vertical;curved=0;rounded=0;" parent="1" edge="1">
                    <mxGeometry relative="1" as="geometry">
                        <mxPoint x="95" y="1201.9999999999998" as="sourcePoint"/>
                        <Array as="points">
                            <mxPoint x="180" y="1202"/>
                        </Array>
                        <mxPoint x="345" y="1201.9999999999998" as="targetPoint"/>
                    </mxGeometry>
                </mxCell>
                <mxCell id="135" value="" style="html=1;points=[];perimeter=orthogonalPerimeter;outlineConnect=0;targetShapes=umlLifeline;portConstraint=eastwest;newEdgeStyle={&quot;edgeStyle&quot;:&quot;elbowEdgeStyle&quot;,&quot;elbow&quot;:&quot;vertical&quot;,&quot;curved&quot;:0,&quot;rounded&quot;:0};" parent="1" vertex="1">
                    <mxGeometry x="615" y="1192" width="10" height="50" as="geometry"/>
                </mxCell>
                <mxCell id="137" value="Salva as informações do pedido" style="html=1;verticalAlign=bottom;endArrow=block;edgeStyle=elbowEdgeStyle;elbow=vertical;curved=0;rounded=0;" parent="1" edge="1">
                    <mxGeometry relative="1" as="geometry">
                        <mxPoint x="355" y="1212" as="sourcePoint"/>
                        <Array as="points">
                            <mxPoint x="450" y="1212"/>
                        </Array>
                        <mxPoint x="615" y="1212" as="targetPoint"/>
                    </mxGeometry>
                </mxCell>
                <mxCell id="138" value="Retorna as informações do pedido" style="html=1;verticalAlign=bottom;endArrow=open;dashed=1;endSize=8;edgeStyle=elbowEdgeStyle;elbow=vertical;curved=0;rounded=0;" parent="1" edge="1">
                    <mxGeometry x="-0.0586" relative="1" as="geometry">
                        <mxPoint x="355" y="1231.5" as="targetPoint"/>
                        <Array as="points">
                            <mxPoint x="500" y="1231.5"/>
                            <mxPoint x="620" y="1221.5"/>
                            <mxPoint x="505.56999999999994" y="1231.5"/>
                            <mxPoint x="515.5699999999999" y="1231.5"/>
                            <mxPoint x="515.5699999999999" y="1241.5"/>
                        </Array>
                        <mxPoint x="615" y="1231.5" as="sourcePoint"/>
                        <mxPoint as="offset"/>
                    </mxGeometry>
                </mxCell>
                <mxCell id="139" value="Retorna o número do pedido e o valor total" style="html=1;verticalAlign=bottom;endArrow=open;dashed=1;endSize=8;edgeStyle=elbowEdgeStyle;elbow=vertical;curved=0;rounded=0;" parent="1" edge="1">
                    <mxGeometry x="-0.0586" relative="1" as="geometry">
                        <mxPoint x="90" y="1242" as="targetPoint"/>
                        <Array as="points">
                            <mxPoint x="225" y="1242"/>
                            <mxPoint x="345" y="1232"/>
                            <mxPoint x="230.56999999999994" y="1242"/>
                            <mxPoint x="240.56999999999994" y="1242"/>
                            <mxPoint x="240.56999999999994" y="1252"/>
                        </Array>
                        <mxPoint x="339.9999999999998" y="1242" as="sourcePoint"/>
                        <mxPoint as="offset"/>
                    </mxGeometry>
                </mxCell>
            </root>
        </mxGraphModel>
    </diagram>
</mxfile>